<svg width="38" height="48" viewBox="0 0 38 48" fill="none" xmlns="http://www.w3.org/2000/svg">
<path d="M2.96319 39.1123C4.59972 39.1123 5.92639 37.798 5.92639 36.1767C5.92639 34.5553 4.59972 33.241 2.96319 33.241C1.32666 33.241 -7.62939e-06 34.5553 -7.62939e-06 36.1767C-7.62939e-06 37.798 1.32666 39.1123 2.96319 39.1123Z" fill="#A3E635"/>
<path d="M24.7114 0H10.2926C6.3518 0 3.16458 3.15763 3.16458 7.06179V40.9382C3.16458 44.8424 6.3518 48 10.2926 48H30.872C34.8128 48 38 44.8424 38 40.9382V13.1551L24.7114 0Z" fill="#F5F5F5"/>
<path d="M24.715 0L37.9934 13.1551H27.5458C25.9777 13.1551 24.715 11.8941 24.715 10.3506V0Z" fill="#E3E4E3"/>
<path d="M3.23883 19.4194C1.47721 19.4194 0.0516129 20.8318 0.0516129 22.5771V35.8028H0.102527C0.387646 34.3501 1.68086 33.2505 3.22865 33.2505H35.3351V19.4295H3.23883V19.4194Z" fill="#65A30D"/>
<path d="M7.95571 30.1646C7.66034 30.1646 7.43314 30.0883 7.27409 29.9358C7.11505 29.7833 7.03552 29.5654 7.03552 29.2821V23.3661C7.03552 23.0828 7.11505 22.8649 7.27409 22.7124C7.43314 22.5599 7.66034 22.4836 7.95571 22.4836H10.171C11.5418 22.4836 12.5983 22.8177 13.3405 23.486C14.0903 24.1469 14.4652 25.0912 14.4652 26.3187C14.4652 26.936 14.3668 27.4844 14.1698 27.9638C13.9805 28.4359 13.7041 28.8354 13.3405 29.1623C12.977 29.4891 12.5302 29.7397 12 29.914C11.4699 30.0811 10.8602 30.1646 10.171 30.1646H7.95571ZM8.79638 28.7809H10.0687C10.5004 28.7809 10.8753 28.7301 11.1934 28.6284C11.5115 28.5267 11.7766 28.3742 11.9887 28.1708C12.2007 27.9674 12.3598 27.7132 12.4658 27.4082C12.5718 27.0958 12.6248 26.7327 12.6248 26.3187C12.6248 25.4906 12.409 24.8769 11.9773 24.4774C11.5532 24.0707 10.917 23.8673 10.0687 23.8673H8.79638V28.7809Z" fill="white"/>
<path d="M19.3208 30.2844C18.5331 30.2844 17.8402 30.121 17.2419 29.7942C16.6511 29.46 16.1891 28.9952 15.8559 28.3996C15.5302 27.804 15.3674 27.1104 15.3674 26.3187C15.3674 25.7158 15.4583 25.1747 15.64 24.6953C15.8294 24.2087 16.0982 23.7946 16.4466 23.4533C16.795 23.1046 17.2116 22.8359 17.6963 22.647C18.1886 22.4582 18.7301 22.3638 19.3208 22.3638C20.1236 22.3638 20.8204 22.5272 21.4111 22.854C22.0019 23.1809 22.4601 23.6421 22.7857 24.2377C23.119 24.826 23.2856 25.5161 23.2856 26.3078C23.2856 26.9106 23.1909 27.4554 23.0016 27.942C22.8122 28.4287 22.5434 28.8463 22.195 29.1949C21.8466 29.5436 21.43 29.8123 20.9453 30.0012C20.4606 30.19 19.9191 30.2844 19.3208 30.2844ZM19.3208 28.8463C19.7676 28.8463 20.1463 28.7482 20.4568 28.5521C20.7749 28.3488 21.0173 28.0582 21.1839 27.6805C21.3581 27.2956 21.4452 26.8416 21.4452 26.3187C21.4452 25.5197 21.2596 24.9023 20.8885 24.4665C20.5174 24.0234 19.9949 23.8019 19.3208 23.8019C18.8815 23.8019 18.5029 23.9 18.1848 24.0961C17.8667 24.2922 17.6243 24.5791 17.4577 24.9568C17.2911 25.3345 17.2078 25.7884 17.2078 26.3187C17.2078 27.1104 17.3933 27.7314 17.7644 28.1817C18.1355 28.6248 18.6543 28.8463 19.3208 28.8463Z" fill="white"/>
<path d="M28.3057 30.2844C27.4423 30.2844 26.7039 30.121 26.0904 29.7942C25.477 29.4673 25.0036 29.0097 24.6704 28.4214C24.3447 27.8258 24.1819 27.1249 24.1819 26.3187C24.1819 25.7158 24.2728 25.1747 24.4545 24.6953C24.6439 24.2087 24.9165 23.7946 25.2725 23.4533C25.6284 23.1046 26.0601 22.8359 26.5676 22.647C27.0826 22.4582 27.662 22.3638 28.3057 22.3638C28.6844 22.3638 29.0669 22.411 29.4531 22.5054C29.8469 22.5926 30.1877 22.7197 30.4755 22.8867C30.6649 22.9884 30.7936 23.1155 30.8618 23.2681C30.93 23.4206 30.9489 23.5731 30.9186 23.7256C30.8959 23.8782 30.8315 24.0089 30.7255 24.1179C30.627 24.2268 30.5021 24.2958 30.3506 24.3249C30.1991 24.3539 30.0287 24.3212 29.8394 24.2268C29.6122 24.0961 29.3736 24.0017 29.1237 23.9435C28.8737 23.8854 28.62 23.8564 28.3625 23.8564C27.8551 23.8564 27.4272 23.9544 27.0788 24.1505C26.738 24.3394 26.4805 24.6154 26.3063 24.9786C26.1321 25.3417 26.045 25.7884 26.045 26.3187C26.045 26.8416 26.1321 27.2883 26.3063 27.6587C26.4805 28.0292 26.738 28.3124 27.0788 28.5086C27.4272 28.6974 27.8551 28.7918 28.3625 28.7918C28.6049 28.7918 28.851 28.7628 29.1009 28.7047C29.3584 28.6466 29.6046 28.5558 29.8394 28.4323C30.0363 28.3379 30.2105 28.3052 30.3619 28.3342C30.521 28.356 30.6497 28.4214 30.7482 28.5303C30.8542 28.632 30.9186 28.7555 30.9413 28.9008C30.9716 29.046 30.9565 29.1913 30.8959 29.3366C30.8353 29.4818 30.7217 29.6053 30.5551 29.707C30.2748 29.8886 29.9302 30.0302 29.5213 30.1319C29.1123 30.2336 28.7071 30.2844 28.3057 30.2844Z" fill="white"/>
<path d="M32.4809 34.4516H3.16458V33.241H35.3321L32.4809 34.4516Z" fill="#F5F5F5"/>
</svg>
