<svg width="21" height="20" viewBox="0 0 21 20" fill="none" xmlns="http://www.w3.org/2000/svg">
<path d="M10.5 1.66675C10.9602 1.66675 11.3333 2.03984 11.3333 2.50008L11.3333 12.6431C11.4272 12.6099 11.5197 12.5709 11.61 12.5261C11.9468 12.3592 12.2877 12.0338 13.2441 11.0775C13.5695 10.7521 14.0971 10.7521 14.4226 11.0775C14.748 11.4029 14.748 11.9306 14.4226 12.256L14.3095 12.3691C13.5108 13.1685 12.9651 13.7147 12.3501 14.0194C11.1843 14.5971 9.81567 14.5971 8.64993 14.0194C8.03494 13.7147 7.48918 13.1685 6.69048 12.3691L6.57741 12.256C6.25197 11.9306 6.25197 11.4029 6.57741 11.0775C6.90285 10.7521 7.43048 10.7521 7.75592 11.0775C8.71225 12.0338 9.05323 12.3592 9.38996 12.5261C9.48034 12.5709 9.57275 12.6099 9.66667 12.6431L9.66666 2.50008C9.66666 2.03984 10.0398 1.66675 10.5 1.66675Z" fill="#84CC16"/>
<path d="M3.83333 10.8334C3.83333 10.3732 3.46024 10.0001 3 10.0001C2.53976 10.0001 2.16666 10.3732 2.16666 10.8334V12.2024C2.16666 13.1056 2.16665 13.834 2.21485 14.4239C2.26447 15.0313 2.36931 15.5648 2.6208 16.0584C3.02028 16.8424 3.6577 17.4798 4.4417 17.8793C4.93528 18.1308 5.46877 18.2356 6.07614 18.2852C6.66605 18.3334 7.39452 18.3334 8.29768 18.3334H12.7023C13.6055 18.3334 14.3339 18.3334 14.9239 18.2852C15.5312 18.2356 16.0647 18.1308 16.5583 17.8793C17.3423 17.4798 17.9797 16.8424 18.3792 16.0584C18.6307 15.5648 18.7355 15.0313 18.7851 14.4239C18.8333 13.8341 18.8333 13.1056 18.8333 12.2025V10.8334C18.8333 10.3732 18.4602 10.0001 18 10.0001C17.5398 10.0001 17.1667 10.3732 17.1667 10.8334V12.1667C17.1667 13.1139 17.166 13.7742 17.124 14.2882C17.0828 14.7925 17.006 15.0823 16.8942 15.3017C16.6545 15.7721 16.272 16.1546 15.8016 16.3943C15.5822 16.5061 15.2924 16.5829 14.7881 16.6241C14.2741 16.6661 13.6138 16.6667 12.6667 16.6667H8.33333C7.38616 16.6667 6.7259 16.6661 6.21186 16.6241C5.70756 16.5829 5.41782 16.5061 5.19835 16.3943C4.72795 16.1546 4.3455 15.7721 4.10581 15.3017C3.99399 15.0823 3.91718 14.7925 3.87598 14.2882C3.83398 13.7742 3.83333 13.1139 3.83333 12.1667V10.8334Z" fill="#84CC16"/>
</svg>
