<svg width="305" height="319" viewBox="0 0 305 319" fill="none" xmlns="http://www.w3.org/2000/svg">
<g opacity="0.48">
<path d="M87.3508 133.178L93.0368 127.492L140.122 174.577C148.697 183.151 162.5 183.188 171.029 174.659L221.641 124.046L227.358 129.763L176.745 180.376C165.223 191.897 146.17 191.996 134.436 180.263L87.3508 133.178Z" fill="#C4B5FD"/>
<path d="M11.6559 100.736L17.6468 94.7455L54.2876 131.386C62.0963 139.195 76.0422 138.164 85.328 128.878L88.1737 126.032C97.4596 116.746 98.491 102.8 90.6823 94.9917L54.0414 58.3509L60.0323 52.36L96.6732 89.0008C107.936 100.263 106.761 119.458 94.1804 132.039L91.3347 134.884C78.7539 147.465 59.4091 148.49 48.2967 137.377L11.6559 100.736Z" fill="#AA8BFA"/>
<path d="M48.9342 48.661C45.3194 52.2757 45.3195 58.1364 48.9342 61.7511C52.5489 65.3658 58.4095 65.3658 62.0243 61.7511C65.639 58.1364 65.639 52.2757 62.0243 48.661C58.4096 45.0463 52.5489 45.0463 48.9342 48.661Z" fill="#AA8BFA"/>
<path d="M6.81798 90.7772C3.20325 94.3919 3.20325 100.253 6.81798 103.867C10.4327 107.482 16.2933 107.482 19.9081 103.867C23.5228 100.253 23.5228 94.3919 19.9081 90.7772C16.2933 87.1625 10.4327 87.1625 6.81798 90.7772Z" fill="#AA8BFA"/>
<path d="M162.637 221.951L156.913 216.228L203.999 169.143C215.732 157.409 234.699 157.421 246.447 169.169L304.888 227.61L299.172 233.327L240.731 174.886C232.145 166.3 218.297 166.292 209.722 174.866L162.637 221.951Z" fill="#C4B5FD"/>
<path d="M162.297 241.714C170.422 235.859 172.261 224.526 166.405 216.401C160.55 208.277 149.217 206.437 141.092 212.293C132.968 218.149 131.128 229.482 136.984 237.606C142.84 245.731 154.173 247.57 162.297 241.714Z" fill="#AA8BFA"/>
<path d="M158.051 233.302C154.623 236.73 148.959 236.73 145.531 233.302C142.102 229.874 142.102 224.209 145.531 220.781C148.959 217.353 154.623 217.353 158.051 220.781C161.48 224.209 161.48 229.874 158.051 233.302Z" fill="#C4B5FD"/>
</g>
</svg>
