<svg width="20" height="20" viewBox="0 0 20 20" fill="none" xmlns="http://www.w3.org/2000/svg">
<path d="M10 10.0001C12.3012 10.0001 14.1667 8.1346 14.1667 5.83341C14.1667 3.53223 12.3012 1.66675 10 1.66675C7.69882 1.66675 5.83334 3.53223 5.83334 5.83341C5.83334 8.1346 7.69882 10.0001 10 10.0001Z" stroke="#647067" stroke-width="1.5" stroke-linecap="round" stroke-linejoin="round"/>
<path d="M2.84167 18.3333C2.84167 15.1083 6.05 12.5 10 12.5C10.8 12.5 11.575 12.6083 12.3 12.8083" stroke="#647067" stroke-width="1.5" stroke-linecap="round" stroke-linejoin="round"/>
<path d="M18.3333 15.0001C18.3333 15.6251 18.1583 16.2167 17.85 16.7167C17.675 17.0167 17.45 17.2834 17.1917 17.5001C16.6083 18.0251 15.8417 18.3334 15 18.3334C13.7833 18.3334 12.725 17.6834 12.15 16.7167C11.8416 16.2167 11.6667 15.6251 11.6667 15.0001C11.6667 13.9501 12.15 13.0084 12.9167 12.4001C13.4917 11.9418 14.2167 11.6667 15 11.6667C16.8417 11.6667 18.3333 13.1584 18.3333 15.0001Z" stroke="#647067" stroke-width="1.5" stroke-miterlimit="10" stroke-linecap="round" stroke-linejoin="round"/>
<path d="M13.7 15L14.525 15.825L16.3 14.1833" stroke="#647067" stroke-width="1.5" stroke-linecap="round" stroke-linejoin="round"/>
</svg>
