<svg width="24" height="24" viewBox="0 0 24 24" fill="none" xmlns="http://www.w3.org/2000/svg">
<path fill-rule="evenodd" clip-rule="evenodd" d="M10.1445 2.65692C9.89129 2.88305 9.76467 2.99612 9.62683 3.08369C9.34193 3.26468 9.01587 3.37062 8.679 3.39165C8.51601 3.40183 8.34712 3.38478 8.00933 3.35069C7.35268 3.28442 7.02435 3.25128 6.74097 3.30454C6.15142 3.41534 5.64273 3.78492 5.35517 4.31138C5.21695 4.56443 5.147 4.88693 5.00712 5.53192C4.93516 5.86371 4.89918 6.02961 4.83914 6.18148C4.71504 6.49536 4.51352 6.77273 4.25335 6.98775C4.12747 7.09178 3.98081 7.17727 3.68749 7.34824C3.11729 7.68059 2.83219 7.84676 2.63424 8.05642C2.22241 8.49259 2.02811 9.09058 2.10491 9.68552C2.14183 9.97149 2.2748 10.2735 2.54075 10.8775C2.67756 11.1883 2.74596 11.3436 2.78665 11.5018C2.87074 11.8287 2.87074 12.1715 2.78665 12.4984C2.74596 12.6565 2.67756 12.8119 2.54075 13.1226C2.2748 13.7267 2.14183 14.0287 2.10491 14.3146C2.02811 14.9096 2.22241 15.5076 2.63424 15.9437C2.83219 16.1534 3.11729 16.3196 3.68749 16.6519C3.98081 16.8229 4.12747 16.9084 4.25335 17.0124C4.51352 17.2274 4.71504 17.5048 4.83914 17.8187C4.89918 17.9706 4.93516 18.1364 5.00712 18.4682C5.147 19.1132 5.21695 19.4357 5.35517 19.6888C5.64273 20.2152 6.15142 20.5848 6.74097 20.6956C7.02434 20.7489 7.35266 20.7157 8.0093 20.6495C8.34709 20.6154 8.51601 20.5983 8.679 20.6085C9.01587 20.6295 9.34193 20.7355 9.62683 20.9165C9.76467 21.004 9.89129 21.1171 10.1445 21.3432C10.6368 21.7828 10.883 22.0026 11.1435 22.1261C11.6856 22.383 12.3144 22.383 12.8565 22.1261C13.117 22.0026 13.3632 21.7828 13.8555 21.3432C14.1087 21.1171 14.2353 21.004 14.3732 20.9165C14.6581 20.7355 14.9841 20.6295 15.321 20.6085C15.484 20.5983 15.6529 20.6154 15.9907 20.6495C16.6473 20.7157 16.9756 20.7489 17.259 20.6956C17.8486 20.5848 18.3573 20.2152 18.6448 19.6888C18.783 19.4357 18.853 19.1132 18.9929 18.4682C19.0648 18.1365 19.1008 17.9705 19.1609 17.8187C19.285 17.5048 19.4865 17.2274 19.7466 17.0124C19.8725 16.9084 20.0192 16.8229 20.3125 16.6519C20.8827 16.3196 21.1678 16.1534 21.3657 15.9437C21.7776 15.5076 21.9719 14.9096 21.8951 14.3146C21.8582 14.0287 21.7252 13.7267 21.4592 13.1226C21.3224 12.8119 21.254 12.6565 21.2133 12.4984C21.1292 12.1715 21.1292 11.8287 21.2133 11.5018C21.254 11.3436 21.3224 11.1883 21.4592 10.8775C21.7252 10.2735 21.8582 9.97148 21.8951 9.68552C21.9719 9.09058 21.7776 8.49259 21.3657 8.05642C21.1678 7.84676 20.8827 7.68059 20.3125 7.34823C20.0192 7.17727 19.8725 7.09178 19.7466 6.98775C19.4865 6.77273 19.285 6.49536 19.1609 6.18148C19.1008 6.02962 19.0648 5.86374 18.9929 5.53199C18.853 4.887 18.783 4.56443 18.6448 4.31138C18.3573 3.78492 17.8486 3.41534 17.259 3.30454C16.9756 3.25128 16.6473 3.28442 15.9907 3.35069C15.6529 3.38478 15.484 3.40183 15.321 3.39165C14.9841 3.37062 14.6581 3.26468 14.3732 3.08369C14.2353 2.99612 14.1087 2.88305 13.8555 2.65692C13.3632 2.21733 13.117 1.99754 12.8565 1.87406C12.3144 1.61717 11.6856 1.61717 11.1435 1.87406C10.883 1.99754 10.6368 2.21734 10.1445 2.65692ZM17.2071 10.2072C17.5976 9.81666 17.5976 9.1835 17.2071 8.79297C16.8166 8.40245 16.1834 8.40245 15.7929 8.79297L11.5556 13.0302C11.1479 13.4379 10.8842 13.7006 10.6674 13.8846C10.4596 14.061 10.3618 14.1056 10.309 14.1227C10.1082 14.188 9.89182 14.188 9.69098 14.1227C9.6382 14.1056 9.54034 14.061 9.33255 13.8846C9.11583 13.7006 8.85204 13.4379 8.44436 13.0302L7.7071 12.293C7.31658 11.9024 6.68341 11.9024 6.29289 12.293C5.90236 12.6835 5.90236 13.3167 6.29289 13.7072L7.0574 14.4717C7.43013 14.8445 7.7517 15.166 8.03819 15.4093C8.34059 15.666 8.66906 15.8936 9.07294 16.0248C9.67547 16.2206 10.3245 16.2206 10.927 16.0248C11.3309 15.8936 11.6594 15.666 11.9618 15.4093C12.2483 15.1661 12.5698 14.8445 12.9425 14.4718L17.2071 10.2072Z" fill="#84CC16"/>
</svg>
