<svg width="16" height="18" viewBox="0 0 16 18" fill="none" xmlns="http://www.w3.org/2000/svg">
<g clip-path="url(#clip0_4017_4113)">
<path d="M14.1942 2.20952C13.7749 1.82268 12.0807 0.592783 8.30699 0.576074C8.30699 0.576074 3.85679 0.307716 1.68739 2.29762C0.479776 3.50549 0.0549592 5.27286 0.0101484 7.46403C-0.0346625 9.65521 -0.0926385 13.7616 3.86565 14.875H3.86945L3.86692 16.574C3.86692 16.574 3.8416 17.2619 4.29452 17.4022C4.84238 17.5723 5.1639 17.0495 5.68695 16.4859C5.97404 16.1766 6.3705 15.7221 6.66924 15.3748C9.37637 15.6026 11.4584 15.0819 11.6949 15.0049C12.2415 14.8277 15.3344 14.4315 15.8375 10.3253C16.3567 6.09312 15.5863 3.41612 14.1942 2.20952ZM14.6529 10.0218C14.2283 13.4502 11.7197 13.6656 11.2572 13.814C11.0604 13.8773 9.23181 14.3322 6.93228 14.1821C6.93228 14.1821 5.21884 16.2492 4.68364 16.7867C4.60009 16.8708 4.50186 16.9047 4.43629 16.888C4.34414 16.8654 4.31882 16.7563 4.31984 16.5968C4.32135 16.369 4.33452 13.7735 4.33452 13.7735C0.986113 12.8439 1.18131 9.34887 1.21928 7.51872C1.25726 5.68856 1.60106 4.1893 2.62234 3.18093C4.45731 1.51887 8.23737 1.76723 8.23737 1.76723C11.4296 1.78116 12.9592 2.74244 13.3139 3.06447C14.4916 4.07284 15.0917 6.48579 14.6529 10.0208V10.0218Z" fill="#8B5CF6"/>
<path d="M9.86018 7.36832C9.81866 6.53134 9.39351 6.09176 8.58472 6.04956" stroke="#8B5CF6" stroke-width="0.426842" stroke-linecap="round" stroke-linejoin="round"/>
<path d="M10.9553 7.73548C10.9722 6.95572 10.7412 6.30423 10.2624 5.78102C9.78139 5.25595 9.11555 4.96683 8.26111 4.9043" stroke="#8B5CF6" stroke-width="0.426842" stroke-linecap="round" stroke-linejoin="round"/>
<path d="M12.0764 8.1739C12.0661 6.8208 11.6618 5.75512 10.8634 4.97688C10.0651 4.19864 9.07228 3.80539 7.88492 3.79712" stroke="#8B5CF6" stroke-width="0.426842" stroke-linecap="round" stroke-linejoin="round"/>
<path d="M8.62682 10.227C8.62682 10.227 8.92682 10.2523 9.08835 10.0533L9.40329 9.65707C9.55519 9.46061 9.92178 9.33529 10.2808 9.53529C10.5498 9.68872 10.811 9.85552 11.0633 10.035C11.3015 10.2102 11.7894 10.6173 11.7909 10.6173C12.0233 10.8135 12.077 11.1016 11.9188 11.4055C11.9188 11.4072 11.9175 11.4103 11.9175 11.4118C11.7432 11.7139 11.522 11.9863 11.2621 12.2189C11.259 12.2204 11.259 12.2219 11.2562 12.2234C11.0304 12.4121 10.8085 12.5194 10.5906 12.5452C10.5586 12.5508 10.526 12.5529 10.4934 12.5513C10.3973 12.5522 10.3018 12.5375 10.2104 12.5077L10.2033 12.4974C9.8676 12.4027 9.30708 12.1657 8.37365 11.6508C7.83349 11.3563 7.31924 11.0166 6.83641 10.6353C6.5944 10.4443 6.36356 10.2396 6.14501 10.0221L6.12172 9.99885L6.09843 9.97555L6.07513 9.95201C6.06729 9.94442 6.05969 9.93657 6.05184 9.92872C5.83439 9.71017 5.62967 9.47932 5.43867 9.23732C5.05745 8.75454 4.71775 8.24038 4.42321 7.70033C3.90826 6.76664 3.6713 6.20663 3.57661 5.87043L3.56623 5.86334C3.53655 5.77196 3.52193 5.67637 3.52294 5.58029C3.52117 5.54777 3.52312 5.51516 3.52876 5.48308C3.55594 5.26569 3.66337 5.04375 3.85105 4.81724C3.85257 4.81446 3.85409 4.81446 3.8556 4.81142C4.08809 4.5515 4.36055 4.33032 4.66271 4.15622C4.66422 4.15622 4.66726 4.1547 4.66904 4.1547C4.97284 3.99647 5.26094 4.05014 5.4569 4.28129C5.45842 4.28281 5.86475 4.77066 6.03918 5.00889C6.21874 5.26149 6.38553 5.52292 6.53894 5.7922C6.73894 6.15094 6.61362 6.51828 6.41716 6.66968L6.02096 6.98462C5.82095 7.14614 5.84728 7.44615 5.84728 7.44615C5.84728 7.44615 6.43413 9.6672 8.62682 10.227Z" fill="#8B5CF6"/>
</g>
<defs>
<clipPath id="clip0_4017_4113">
<rect width="16" height="16.8719" fill="white" transform="translate(0 0.563965)"/>
</clipPath>
</defs>
</svg>
